<?xml version="1.0" encoding="UTF-8"?>
<svg id="Layer_1" xmlns="http://www.w3.org/2000/svg" version="1.1" xmlns:xlink="http://www.w3.org/1999/xlink" viewBox="0 0 204 40">
  <!-- Generator: Adobe Illustrator 29.5.1, SVG Export Plug-In . SVG Version: 2.1.0 Build 141)  -->
  <defs>
    <style>
      .st0 {
        fill: none;
      }

      .st1 {
        fill: #008da8;
      }

      .st2 {
        clip-path: url(#clippath-1);
      }

      .st3 {
        clip-path: url(#clippath);
      }
    </style>
    <clipPath id="clippath">
      <rect class="st0" y="-.0000192" width="57" height="40"/>
    </clipPath>
    <clipPath id="clippath-1">
      <rect class="st0" x="77" y="4.9999808" width="127" height="34"/>
    </clipPath>
  </defs>
  <g class="st3">
    <g>
      <path class="st1" d="M-.0004831-.0000192v5.1269698c1.0808931,1.30405,2.3122931,2.84832,3.6873532,4.6396699,1.4981999,1.9492607,3.0237598,3.9807606,4.5766902,6.0878601,1.5529299,2.1070995,3.07164,4.2140999,4.5356398,6.3075008,1.4708004,2.0932999,2.7501001,4.0081997,3.8446999,5.7446995l-.0547009-20.2539902c-.0341988-.6794801-.294199-1.0500998-.7935991-1.24228-.5335999-.1990399-1.5598001-.30199-2.3053999-.30199-.1710997,0-.3010998-.0755-.3900003-.2333498-.0888996-.1578603-.1300001-.3225803-.1300001-.4941702,0-.1990399.0411005-.3706198.1300001-.51476.0820999-.1441298.2121-.21276.3900003-.21276.2873001,0,1.1356001.0205898,1.7718.0686302.5403996.0411797,1.1561003.06177,1.8608007.06177h.424099c.8619995,0,1.6077003-.0205903,2.2371006-.0686302.6292992-.0411801,1.4776001-.0686398,1.7717991-.0686398.1710014,0,.3010006.0686398.3899002.21277.0890007.1441298.1300011.3157201.1300011.51476,0,.1715798-.0410004.3362999-.1300011.4941597-.0888996.1578603-.2188988.2333603-.3899002.2333603-.7456989,0-1.7786999.1029496-2.3053989.30199-.5335999.2058997-.7798996.6382999-.7798996,1.2010999l-.0206013,27.1928306c0,.2333984-.0888996.3843994-.2598991.4529991-.1710014.0685997-.3694.1097984-.6020012.1097984-.2325993,0-.4447002-.0273972-.6430988-.0891991-.1984005-.0617981-.3283997-.1441002-.3899002-.2677002-.6021004-.9403-1.4230003-2.1002007-2.4628-3.6032982-1.0398998-1.5031013-2.1823006-3.1297016-3.4343004-4.8730011-1.2518797-1.7502003-2.5448399-3.5415001-3.8720198-5.3740005-1.3271699-1.8325996-2.5996099-3.5621986-3.8241701-5.1818991C1.88082,14.5435809.8957,13.266981-.0073242,12.1344803v27.8518019h27.5627251V-.0000192H-.0004831Z"/>
      <path class="st1" d="M30.4267998-.0000192v19.0939999c1.7513008-.1646996,3.3179016-.6245003,4.6929016-1.3589001,1.5597992-.8304996,2.866497-1.7501993,3.9062996-2.9169998,1.0398979-1.1598997,1.8334007-2.4021997,2.3670006-3.7268.5335999-1.3246603.8003998-2.5188904.8003998-3.5964499,0-.4667101-.2052002-.8442001-.6088028-1.1324601-.4035988-.2951303-.957798-.43926-1.6486969-.43926-.3488998,0-.5199013-.21277-.5199013-.6451602,0-.1715899.0410004-.3225799.1298981-.4529901.0890007-.1303997.2189026-.1921697.3900032-.1921697.3146973,0,.8824997.0205898,1.6965981.0686297.8072014.0480499,1.9427986.0686402,3.3862991.0686402s2.6270027-.0205903,3.4547997-.0686402c.8277016-.0411797,1.3819008-.0686297,1.6760025-.0686297.3488998,0,.5200005.21276.5200005.6451597,0,.1715803-.0410995.3225803-.1300011.45298-.0890007.1304102-.2188988.1921802-.3899994.1921802-.8414001,0-1.5050011.1235399-1.9976006.3706198-.4925003.2470903-.8688011.7755704-1.1287003,1.59232-.5472984,1.6883998-1.3204002,3.1915298-2.3055,4.51613s-2.0728989,2.4640007-3.2564011,3.4247999c-1.1903.9609013-2.4216995,1.7296009-3.6940994,2.3129997-1.2724991.5834007-2.4765015.9883003-3.6053009,1.2217007,1.7376022.2882996,3.3111.8304996,4.713501,1.6128998s2.6474991,1.7364998,3.735199,2.8551998c1.0878029,1.1187,2.0250015,2.3815994,2.8254013,3.7954998.7935982,1.4138012,1.4435005,2.9032001,1.9360008,4.4680004.2599983.8167992.6362991,1.3452988,1.1287994,1.5923996.4925995.2470016,1.1562004.3706017,1.9976006.3706017.1711006,0,.3009987.0616989.3899994.1921997.0889015.1303978.1298981.2813988.1298981.4528999,0,.4323997-.1709976.6451988-.5198975.6451988-.2873001,0-.8756027-.0205994-1.7581024-.0685997-.8824997-.0480995-2.0592003-.0686989-3.5436974-.0686989-1.4845009,0-2.5791016.0205994-3.3864021.0686989-.8071976.0480003-1.375.0685997-1.6896973.0685997-.1779022,0-.3079033-.0617981-.3900032-.1921997-.0888977-.1304016-.1298981-.2813988-.1298981-.4529991,0-.4323997.1710014-.6450996.5199013-.6450996.6908989,0,1.2450981-.1441994,1.6486969-.4323997.4036026-.2882996.6088028-.665802.6088028-1.1324997,0-.5216007-.1231003-1.1874008-.3694-1.9835014-.2462006-.7961998-.6088028-1.6335011-1.0876999-2.5051994-.4789009-.8716011-1.0809021-1.7501011-1.8061028-2.6355-.7250977-.8854008-1.5528984-1.6953011-2.4969978-2.4159012-.9372025-.7276001-2.0181007-1.2698002-3.1469002-1.8120003-1.0671997-.5079002-1.9976006-.6245003-3.0442009-.6794987v19.5538979h27.5626984V-.0000192h-27.5626984Z"/>
    </g>
  </g>
  <g class="st2">
    <g>
      <path class="st1" d="M84.0735016,14.8733805c-.3003998-.4750996-.6417999-.9947996-1.0103989-1.559-.3687057-.5641994-.7509995-1.1431999-1.1606064-1.7519999-.4096985-.6086998-.8056946-1.1729002-1.1879959-1.7370701-.3823013-.5493498-.7372971-1.0541496-1.0650024-1.5144196-.3276978-.4602604-.6144943-.8314404-.8330002-1.1135302v7.8838196c0,.1040001.0410004.1930008.1092987.2673006.068306.0741997.1638031.1335993.2731018.1780996.1091995.0446005.2321014.0742998.3685989.0890999.1366043.0149002.2595062.0297003.3824005.0297003.0546036,0,.0955048.0149002.1365051.0741997.027298.0446005.0410004.1040001.0410004.1634007,0,.1484003-.0546036.2375002-.1775055.2375002h-.2457962c-.1091995,0-.2458038,0-.3823013-.014801-.1501999,0-.3003998,0-.4505997-.0149002h-.4370041c-.2730942,0-.5324936,0-.7509995.0297012-.218399.0149002-.3822937.0296993-.4914932.0296993-.0546036,0-.0956039-.0296993-.1366043-.0741997-.027298-.0445995-.0409012-.1040001-.0409012-.1633005,0-.1484995.0546036-.2227001.1775055-.2227001.245697,0,.4641953-.0445995.6416931-.1336994.1775055-.0890999.2595062-.2524004.2595062-.4751005V6.1135109c0-.1484699-.0820007-.26724-.2595062-.3563304-.1774979-.0742297-.3959961-.1187696-.6416931-.1187696-.0546036,0-.0956039-.0297003-.1366043-.0742402-.0409012-.0445399-.0409012-.1187801-.0409012-.1930099,0-.0593901,0-.1187801.0409012-.1781702.027298-.0593901.0682983-.0890799.1366043-.0890799h.3822937c.2048035,0,.4505997,0,.7373047.0148401.2867966,0,.5735016,0,.8875961.0148497h.8191986c.3551025.4751101.7509995,1.0244603,1.2016068,1.6480403.4369965.62358.8875961,1.2768497,1.351799,1.9598198.4642944.68297.9148941,1.3808203,1.351799,2.07862.4369965.6978006.832901,1.3511,1.1878967,1.9301004v-6.4436502c0-.1187801-.027298-.2375598-.0954971-.31179-.0682983-.0890899-.1501999-.1633201-.2594986-.20786-.1091995-.0593901-.218399-.0890899-.3550034-.10393-.1229019-.0297003-.2593994-.0297003-.3823013-.0297003-.0545959,0-.0955963-.0296898-.1228943-.0742297-.0273056-.0593901-.0410004-.1187801-.0410004-.1930199,0-.0593801,0-.1187701.0410004-.1781602.027298-.0593901.0682983-.0890899.1228943-.0890899.1091995,0,.286705,0,.5325012.0296998.2593994.0148501.5462036.0296903.8876038.0296903.2866974,0,.5460968,0,.7782974-.0296903.2321014-.0148501.3958969-.0296998.4915009-.0296998.0545959,0,.0955963.0296998.1229019.0890899.027298.0445399.0410004.1187801.0410004.1930099,0,.0593901-.0137024.1187801-.0410004.1781702-.0273056.0593901-.068306.0890799-.1229019.0890799-.2458038,0-.4642029.0445399-.6417007.1187801-.177597.0890799-.2594986.2375498-.2594986.4899502v9.7545505c0,.0742989-.0409012.1336994-.1365051.1633987-.0955963.0297012-.2320938.0593014-.3822937.0593014-.0956039,0-.1912003,0-.2595062-.0296001-.0818939-.0149002-.1364975-.0594006-.1637955-.1188011-.1912003-.3118-.4370041-.7126999-.7509995-1.1877995"/>
      <path class="st1" d="M93.1669006,6.2471407c-.2594986.20786-.518898.41572-.7782974.6087298-.2731018.1930103-.5326004.3563304-.7919998.51965-.259407.1633201-.4915009.2969403-.7100067.4008703-.1092987.0445399-.2047958.0890899-.3003998.10393-.0955963.0148497-.2047958.0296998-.3276978.0296998s-.1912003-.0445399-.1912003-.1484699c0-.0742402.0410004-.1484799.1366043-.20786.1637955-.1187801.3276978-.2524099.5051956-.4008799.1774979-.1633201.3276978-.3266401.4778976-.5048003.1501999-.1781697.286705-.3563299.4096069-.5493498.1228943-.1930099.2184982-.3711801.3003998-.5493402.0410004-.10393.1091995-.1781697.1912003-.2227097.0818939-.0445399.1774979-.0593901.2866974-.0593901h1.3381958s.1092072.0148501.1501999.0593901c.0273056.0296998.0409012.0742397.0409012.1187797,0,.0742302-.027298.1336203-.0682983.1930103-.1911011.20786-.4095993.41572-.6689987.6384301M92.7708969,10.8497809c0-.5642004-.1501999-.9947805-.4368973-1.2917299-.2867966-.2969398-.6417999-.4454098-1.0513992-.4454098-.2868042,0-.5462036.0742292-.7509995.20786-.2184982.1484699-.3960037.3414793-.5462036.5938797-.1501999.2523994-.2593994.5493002-.3276978.9056997-.0682983.3415003-.1092987.7275-.1092987,1.1283998,0,1.1729002.1501999,2.0637007.4505997,2.7021999.3003998.6384001.7509995.9502001,1.351799.9502001.1912003,0,.3686981-.0296993.5462036-.1040001.1774979-.0741997.3276978-.1780996.4505997-.3266001.1228943-.1484995.2320938-.3414993.3140945-.5789995.0819016-.2376003.1229019-.5345001.1229019-.8760004v-2.8803997l-.0137024.0149002ZM94.5868988,15.2147807c0,.1633997.0956039.2672997.2731018.3564005.1774979.0741997.3959961.1187992.6417999.1187992.1229019,0,.1774979.0742006.1774979.2375002,0,.0594006-.0136948.1188011-.0410004.1632996-.027298.0446014-.0681992.0743008-.1364975.0743008-.1092987,0-.3686981,0-.7919998-.0296993-.4233017-.0149002-.9693985-.0297012-1.638504-.0297012-.1638947,0-.2730942-.2820997-.2866974-.8314991-.1912003.3118-.4505997.5641994-.7783966.7423992-.3277054.1781998-.7509003.2672005-1.2698059.2672005-.4232941,0-.8328934-.0890007-1.2152939-.2672005-.3823013-.1781998-.7236023-.4453993-1.0240021-.7868996s-.5326004-.7572002-.7100983-1.2322998c-.1775055-.4900007-.2593994-1.0244999-.2593994-1.6332006,0-.5344992.0955963-1.0393.2730942-1.4995995.1775055-.4751005.4233017-.8759604.7237015-1.2322903s.6417007-.6384296,1.0240021-.83144c.3824005-.20786.7647018-.3117895,1.1743011-.3117895.518898,0,.9557953.0890799,1.3108978.2672491.3550034.1781607.6280975.4305601.805603.7572002.1910934-.1187801.3822937-.2523994.5324936-.3860302.1501999-.1336193.3003998-.2523994.4233017-.3563299.1229019-.1039295.2321014-.1930094.314003-.2672501.0820007-.0593796.1639023-.1039295.2322006-.1039295.0819016,0,.1364975.0297003.1774979.0742397.0409012.0445404.0681992.1633205.0681992.3266401v6.3842297"/>
      <path class="st1" d="M102.2200012,10.7161807c-.0680008.1336002-.137001.1929998-.2190018.1929998s-.1500015-.0445995-.2040024-.1335993c-.0960007-.2079-.2329941-.3861008-.423996-.5345001-.1910019-.1485004-.4500046-.2228003-.7779999-.2228003-.1640015,0-.3280029.0297003-.4780045.1040001-.1637955.0741997-.300293.1929998-.4231949.3562994-.1229019.1633005-.2184982.3712006-.3003998.6384001-.0820007.2673006-.1092987.5791006-.1092987.9503002v3.1327c0,.3118.4505997.4751005,1.3378983.4751005.0550003,0,.1100006.0148993.137001.0741997.0270004.0445995.0410004.1040001.0410004.1633997,0,.1484003-.0550003.2375002-.1780014.2375002h-.2860031c-.137001,0-.3149948,0-.5192947-.0147991-.2049026,0-.4233017,0-.6691055-.0149002h-.7237015c-.4778976,0-.8738937,0-1.2151947.0296993-.3278046.0149002-.5462036.0296993-.6555023.0296993-.0546036,0-.0954971-.0296993-.1364975-.0741997-.0273056-.0445995-.0410004-.103899-.0410004-.1632996,0-.1485004.0546951-.2227001.1774979-.2227001.2458038,0,.4643021-.0445995.6417999-.1188002.1774979-.0742998.2593994-.1929998.2593994-.3563995v-5.5527897c0-.1484709-.0819016-.2672501-.2593994-.3563309-.1774979-.0742397-.3959961-.1187792-.6417999-.1187792-.0546036,0-.0954971-.0297003-.1364975-.0742407-.0273056-.0445395-.0410004-.1039295-.0410004-.1633196,0-.1484699.0546951-.2375498.1774979-.2375498.1092987,0,.3686981,0,.7782974.0296898.4097061.0148497.9559021.0297003,1.6522064.0297003.0819931,0,.1501999.0296898.1774979.0890799s.0546951.1484699.0820007.2523994c0,.0445404.0135956.1187801.0135956.2375603,0,.1187696,0,.2375498.0137024.3711796v.6681004c.1091995-.2227001.2321014-.4305496.3959961-.6532602.1502075-.2227001.3277054-.41572.5325012-.5938797.1910019-.1781702.4100037-.3266401.6549988-.4305696.2330017-.1039305.4920044-.1633205.779007-.1633205.1639938,0,.3139954.0148506.4639969.0593901.1500015.0445404.2730026.1039305.3819962.1633205.1100006.0742292.1910019.1484699.2600021.2227097.0680008.0890799.0950012.1633101.0950012.2672396,0,.0890903-.0270004.1781702-.0820007.3117905l-.5459976,1.2025795.0139999-.0889997Z"/>
      <path class="st1" d="M105.1559982,9.8995512c-.2869949.5939293-.4369965,1.4105291-.4369965,2.4646292,0,.5048008.0410004.9651003.1090012,1.3659.0820007.4158001.1769943.7721004.3139954,1.0690002.1360016.2969999.314003.5345001.5190048.6829996.2049942.1633005.4499969.2376003.7229996.2376003.2869949,0,.5329971-.0742998.737999-.2376003.2050018-.1632996.3819962-.3859997.5189972-.6829996.1360016-.2968998.2450027-.6532001.3000031-1.0690002.0680008-.4157.0960007-.8758993.0960007-1.3659,0-1.0541-.151001-1.8706999-.4240036-2.4646292-.2730026-.5938902-.6959991-.89083-1.2419968-.89083-.5460052,0-.9420013.2969398-1.2290039.89083M107.8590012,8.7563208c.4509964.1930103.8330002.4454098,1.1609955.8017502.3280029.3414803.5730057.7572098.7510071,1.2323093.1769943.4751005.272995,1.0096006.272995,1.5886002,0,.5791006-.0960007,1.1136007-.2869949,1.6035004-.1910019.4750996-.4500046.8908997-.765007,1.2323999-.3269958.3414001-.7099991.6086998-1.159996.7869005-.451004.1929989-.9290009.2819996-1.447998.2819996-.5180054,0-.9960022-.0890007-1.4470062-.2819996-.4499969-.1931009-.8330002-.4455004-1.1609955-.8018007-.3270035-.3415003-.586998-.7572002-.7779999-1.2322998s-.2730026-1.0095997-.2730026-1.5887003c0-.5789995.0960007-1.0985994.2730026-1.5738001.1910019-.4750996.4509964-.8907795.7649994-1.2322693.3280029-.3414803.7099991-.6087303,1.159996-.8017406.451004-.1930199.9430008-.2820997,1.4610062-.2820997.5189972,0,1.0379944.0890799,1.4889984.2820997"/>
      <path class="st1" d="M116.2699966,10.8200806c0-.5641994-.1499939-.9947701-.4369965-1.2917194-.2870026-.2969408-.6419983-.4454107-1.0510025-.4454107-.2869949,0-.5329971.0742302-.7509995.20786-.2190018.1484699-.3959961.3414803-.5459976.5938807-.151001.2523899-.2600021.5493898-.3280029.9056892-.0680008.3415003-.1090012.7275009-.1090012,1.1284008,0,1.1728992.1500015,2.0636997.4500046,2.7021999.3010025.6384001.7509995.9502001,1.3519974.9502001.1910019,0,.3690033-.0297003.5460052-.1040001.1779938-.0742006.3279953-.1781006.4509964-.3266001.1230011-.1485004.2320023-.3415003.314003-.5790005.0819931-.2375994.1229935-.5345001.1229935-.8759995v-2.8804007l-.0139999.0149002ZM118.0859985,15.1851805c0,.1633005.0960007.2672005.2600021.3563004.177002.0741997.3959961.1188002.6409988.1188002.1100006,0,.1780014.0741997.1780014.2375002,0,.0593996-.0139999.1187992-.0410004.1632996-.0270004.0445995-.0680008.0743008-.137001.0743008-.1090012,0-.3679962,0-.7919998-.0297012-.4229965-.0149002-.9690018-.0296993-1.6380005-.0296993-.1780014,0-.2730026-.2821007-.2870026-.8315001-.1909943.3118-.4499969.5641994-.7779999.7424002-.3279953.1781998-.7509995.2672005-1.2699966.2672005-.4100037,0-.8190002-.0890007-1.2020035-.2672005-.3819962-.1782007-.7229996-.4454002-1.0239944-.7869005-.2860031-.3415003-.5320053-.7572002-.7099991-1.2322998-.177002-.4899998-.2730026-1.0244999-.2730026-1.6331997,0-.5345001.0960007-1.0393.2730026-1.4996004.1779938-.4750996.423996-.8759499.723999-1.2322798.2999954-.3563299.6419983-.6384306,1.0239944-.83144.3820038-.20786.765007-.3117905,1.1740036-.3117905.4919968,0,.9020004.0742302,1.2569962.2375507.3410034.1633196.614006.3860292.7910004.6978197v-3.3109202c0-.1484699-.0949936-.2820997-.272995-.3563299-.177002-.0742402-.3960037-.1187801-.6409988-.1187801-.0550003,0-.0960007-.0296898-.1230011-.0890799-.0279999-.0593901-.0410004-.1187801-.0410004-.1781702,0-.1484699.0540009-.2227097.177002-.2227097h2.5809937c.1640015,0,.2460022.1187797.2460022.3414898,0,.0890799,0,.2672501-.0139999.5345001,0,.2672501-.0270004.5790401-.0270004.93537,0,.3711801-.0279999.7720499-.0279999,1.2174702,0,.4454098-.0130005.9056702-.0130005,1.3659296v5.6419706"/>
      <path class="st1" d="M122.7559967,15.1851805c0,.1633005.0960007.2821007.2600021.3563004.177002.0741997.3820038.1039.6409988.1039.0550003,0,.0960007.0297003.137001.0742998.0270004.0445004.0410004.1039.0410004.1633005,0,.1484003-.0550003.2375002-.1780014.2375002-.0950012,0-.2999954,0-.6139984-.0297012-.314003-.0147991-.7099991-.0296993-1.2019958-.0296993-.4910049,0-.8740005,0-1.1880035.0296993-.314003.0149002-.5319977.0297012-.6279984.0297012-.0540009,0-.0950012-.0297012-.1230011-.0741997-.0270004-.0445004-.0410004-.1039009-.0410004-.1633005,0-.1485004.0550003-.2227001.1640015-.2227001.2460022,0,.4639969-.0446005.6419983-.1188002.177002-.0741997.2590027-.1929998.2590027-.3563004v-5.5528793c0-.1484709-.0820007-.2672501-.2590027-.3414803-.1780014-.0742397-.3959961-.1187801-.6419983-.1187801-.0540009,0-.0950012-.0297003-.1230011-.0742397-.0270004-.0445404-.0410004-.1039305-.0410004-.1633205,0-.1484699.0550003-.2375498.1640015-.2375498s.3689957,0,.7779999.0296898c.409996.0148506.9560013.0297003,1.6389999.0297003.0960007,0,.1500015.0296898.1780014.0890799.0270004.0593901.0540009.1484699.0809937.2524004.0139999.0890894.0410004.20786.0410004.3414898v.3711796c.2460022-.3563299.5740051-.6681299.9560013-.9205294.3960037-.2524004.901001-.3860207,1.5159988-.3860207.7649994,0,1.3650055.1930103,1.7890015.5641899.4230042.3860302.6409988.9947701.6409988,1.8410702v4.2908001c0,.1633005.0960007.2820997.2730026.3563004.1780014.0742998.3960037.1040001.6420059.1040001.0549927,0,.095993.0296993.1230011.0741997.0269928.0445004.0410004.1039.0410004.1633005,0,.1485004-.0550079.2376003-.177002.2376003-.0960083,0-.3010101,0-.6290054-.0297012-.314003-.0149002-.7229996-.0296993-1.2149963-.0296993-.4910049,0-.8740005,0-1.1740036.0296993-.3000031.014801-.5049973.0297012-.6149979.0297012-.0540009,0-.0950012-.0297012-.1360016-.0743008-.0270004-.0445004-.0410004-.1039-.0410004-.1632996,0-.1484003.0550003-.2227001.177002-.2227001.2459946,0,.4649963-.0445004.6419983-.1188002.1780014-.0742006.2600021-.1929998.2600021-.3563004v-3.9642c0-.5938997-.0820007-1.0393-.2730026-1.3659201-.1780014-.3117895-.5189972-.4751101-.9970016-.4751101-.5459976,0-.9830017.1781607-1.3249969.5196505-.3410034.3414803-.5050049.8759794-.5050049,1.5737801v3.7117996l.0410004-.0148001Z"/>
      <path class="st1" d="M132.7369995,6.2471407c-.2449951.20786-.5180054.41572-.7779999.6087298-.272995.1930103-.5319977.3563304-.7919922.51965-.2590027.1633201-.4910126.2969403-.6960144.4008703-.1089935.0445399-.2049866.0890899-.3009949.10393-.0950012.0148497-.1909943.0296998-.3269958.0296998-.1370087,0-.1910095-.0445399-.1910095-.1484699,0-.0742402.0410004-.1484799.1220093-.20786.1640015-.1187801.3280029-.2524099.5059967-.4008799.177002-.1633201.3269958-.3266401.4779968-.5048003.1500092-.1781697.2860107-.3563299.4090118-.5493498.1229858-.1930099.2319946-.3711801.3009949-.5493402.0410004-.10393.0950012-.1781697.1909943-.2227097.0820007-.0445399.177002-.0593901.2870026-.0593901h1.3379974s.1090088.0148501.1500092.0593901c.0269928.0296998.0410004.0742397.0410004.1187797,0,.0742302-.0279999.1336203-.0680084.1930103-.1920013.20786-.4100037.41572-.6699982.6384301M132.3820038,9.4986609c0,.1484795-.0130005.3711796-.0270081.6533203,0,.2820997,0,.6383991-.0269928,1.0689993,0,.4305-.0140076.9799004-.0140076,1.6331005v2.3606997c0,.1633997.0820007.2820997.2600098.3564005.177002.0741997.3819885.1039.6279907.1039.0540009,0,.0950012.0296993.1230011.0741997.0270081.0445995.0410004.1040001.0410004.1633997,0,.1484003-.0549927.2375002-.1779938.2375002-.0960083,0-.3000031,0-.6139984-.0296993-.3280029-.014801-.723999-.0297012-1.2020111-.0297012-.4779968,0-.8739929,0-1.173996.0297012-.3009949.0149002-.5189972.0296993-.6150055.0296993-.0539856,0-.094986-.0296993-.1229858-.0741997-.0270081-.0445995-.0410004-.1040001-.0410004-.1633005,0-.1484995.0549927-.2227001.1639862-.2227001.2460022,0,.4650116-.0445995.6420135-.1187992.1779938-.0743008.2589874-.1930008.2589874-.3564005v-5.5528002c0-.1484699-.0809937-.2672501-.2589874-.3563299-.177002-.0742302-.3960114-.1187801-.6420135-.1187801-.0539856,0-.094986-.0296898-.1229858-.0742292-.0270081-.0445404-.0410004-.1039305-.0410004-.1633205,0-.1484699.0549927-.2375603.1639862-.2375603.1100006,0,.3830109,0,.8330078.0297003.451004.0148497,1.0240021.0296898,1.7070007.0296898.1640015,0,.2460022.1187801.2460022.3414907,0,.0890799,0,.2226992-.0140076.3711796"/>
      <path class="st1" d="M142.4179993,12.3492812c.3419952.1781998.6289978.4157991.8740082.6829996.2459869.2672997.4509888.5642004.6009979.8908005.1640015.3266993.272995.6384993.3549957.9502993s.2189941.5195999.4100037.6384001c.2050018.1039.4369965.1633005.6959991.1633005.0549927,0,.095993.0296993.1369934.0741997.0270081.0445995.0410004.1040001.0410004.1633997,0,.1484003-.0549927.2227011-.1779938.2227011-.0950012,0-.2730103,0-.5319977-.0297012-.2730103-.0149002-.6420135-.0296993-1.1340027-.0296993-.20401,0-.4089966,0-.6139984.0296993-.2050018.014801-.3690033.0297012-.4780121.0297012-.2049866,0-.2999878-.1337013-.2999878-.415801,0-.4898996-.0820007-.9352999-.1920013-1.3509998-.1220093-.4008999-.2730103-.7572002-.477005-1.0542002-.2050018-.2968998-.451004-.5195999-.723999-.6977997-.2870026-.1632996-.5870056-.2672997-.9290009-.2820997v2.8802996c0,.3267002.2460022.4899998.723999.4899998.0550079,0,.0960083.0297003.1230011.0742006.0270081.0445995.0410004.1040001.0410004.1633997,0,.1336002-.0549927.2077999-.1779938.2077999-.0950012,0-.2730103,0-.5320129-.0296993-.2599945-.014801-.6279907-.0297012-1.1199951-.0297012-.4909973,0-.8600006,0-1.173996.0297012-.3009949.0149002-.5050049.0296993-.6150055.0296993-.0540009,0-.0950012-.0296993-.1360016-.0741997-.0269928-.0445995-.0410004-.1039-.0410004-.1633005,0-.1484995.0550079-.2227001.177002-.2227001.2460022,0,.4649963-.0445995.6419983-.1187992.178009-.0743008.2600098-.1930008.2600098-.3564005V6.0838207c0-.1484699-.0820007-.2672501-.2600098-.3563299-.177002-.0742402-.3959961-.1187801-.6419983-.1187801-.0540009,0-.0950012-.0296898-.1360016-.0890799-.0269928-.0593901-.0410004-.1187801-.0410004-.1781702,0-.1484699.0550079-.2227097.177002-.2227097h2.5540009c.1640015,0,.2460022.1187797.2460022.3414898,0,.0890799,0,.2227101-.0139923.3711801,0,.1484699-.0140076.3711801-.0270081.6384301,0,.2672501,0,.62358-.0139923,1.0541401,0,.4305696-.0140076.9799199-.0140076,1.6331897v2.5833998c.3280029,0,.628006-.0890999.9020081-.2374992.272995-.1485004.4909973-.3267002.6689911-.5345001.177002-.2079.3269958-.4306002.4230042-.6682005.0950012-.2375002.1360016-.4453802.1360016-.6383896,0-.1633205-.0540009-.2969503-.1500092-.41572-.0950012-.1039305-.2589874-.1633205-.4909973-.1633205-.1100006,0-.1779938-.0742397-.1779938-.2375593,0-.0593901.0139923-.1187706.0410004-.1633205.0269928-.0445395.0679932-.0742302.1230011-.0742302.1089935,0,.3139954,0,.6139984.0296907.3009949.0148497.696991.0296993,1.1750031.0296993.4779968,0,.9149933,0,1.269989-.0296993.355011-.0148506.5870056-.0296907.6820068-.0296907.1100006,0,.1779938.0742302.1779938.2375507,0,.0593901,0,.1187792-.0410004.1633196-.0269928.0445404-.0679932.0742397-.1369934.0742397-.3549957,0-.6139984.0445404-.7779999.1633205-.1640015.1039295-.3139954.2820902-.4640045.5493402-.3009949.5344696-.696991.9798698-1.1750031,1.3510695-.4769897.3564005-1.0099945.6236-1.5829926.7572002.4499969.0593996.845993.1929998,1.1869965.3711996"/>
      <path class="st1" d="M148.7129974,15.1851805c0,.1633005.0820007.2821007.2600098.3563004.1769867.0741997.3959961.1039.6409912.1039.0550079,0,.0960083.0297003.1370087.0742998.0269928.0445004.0410004.1039.0410004.1633005,0,.1484003-.0550079.2375002-.1640015.2375002-.0960083,0-.3000031,0-.6150055-.0297012-.3139954-.0147991-.7100067-.0296993-1.201004-.0296993-.4919891,0-.8739929,0-1.1880035.0296993-.3139954.0149002-.5189972.0297012-.6279907.0297012-.0550079,0-.0960083-.0297012-.1370087-.0741997-.0269928-.0445004-.0410004-.1039009-.0410004-.1633005,0-.1485004.0550079-.2227001.178009-.2227001.2460022,0,.4640045-.0446005.6419983-.1188002.177002-.0741997.272995-.1929998.272995-.3563004v-5.5528793c0-.1484709-.0820007-.2672501-.272995-.3414803-.1779938-.0742397-.3829956-.1187801-.6419983-.1187801-.0550079,0-.0960083-.0297003-.1370087-.0742397-.0269928-.0445404-.0410004-.1039305-.0410004-.1633205,0-.1484699.0550079-.2375498.178009-.2375498.1089935,0,.3549957,0,.7779999.0296898.4100037.0148506.9559937.0297003,1.6389923.0297003.0820007,0,.1500092.0296898.177002.0890799.0279999.0593901.0550079.1484699.0820007.2524004.0140076.0890894.0410004.20786.0410004.3414898v.3711796c.2460022-.3563299.5740051-.6681299.9560089-.9205294.3959961-.2524004.901001-.3860207,1.5159912-.3860207.7640076,0,1.3650055.1930103,1.7880096.5641899.423996.3860302.6419983.9947701.6419983,1.8410702v4.2908001c0,.1633005.0820007.2820997.2589874.3563004.178009.0742998.3960114.1040001.6420135.1040001.0549927,0,.095993.0296993.1230011.0741997.0269928.0445004.0409851.1039.0409851.1633005,0,.1485004-.0549927.2376003-.1769867.2376003-.0960083,0-.3010101,0-.6290131-.0297012-.3269958-.0149002-.7229919-.0296993-1.2149963-.0296993-.4909973,0-.8739929,0-1.173996.0296993-.3139954.014801-.5189972.0297012-.6150055.0297012-.0540009,0-.0950012-.0297012-.1360016-.0743008-.0269928-.0445004-.0410004-.1039-.0410004-.1632996,0-.1484003.0550079-.2227001.177002-.2227001.2460022,0,.4650116-.0445004.6419983-.1188002.178009-.0742006.2600098-.1929998.2600098-.3563004v-3.9642c0-.5938997-.0960083-1.0393-.2730103-1.3659201-.1779938-.3117895-.5189972-.4751101-.996994-.4751101-.5460052,0-.9830017.1781607-1.3249969.5196505-.3410034.3414803-.5050049.8759794-.5050049,1.5737801v3.7117996l.0410004-.0148001Z"/>
      <path class="st1" d="M158.0119934,5.3414606c.2050018.2227101.3140106.5048103.3140106.83145,0,.3266301-.1090088.6087303-.3140106.8314404-.2049866.2226996-.4639893.3414798-.7649994.3414798-.2999878,0-.5599976-.1187801-.7779999-.3414798-.2049866-.2227101-.3139954-.5048103-.3139954-.8314404,0-.3266397.0960083-.6087399.3139954-.83145.2180023-.2226996.4640045-.3414798.7779999-.3414798.3140106,0,.5600128.10393.7649994.3414798ZM158.2579956,9.4689806c0,.1484699-.0139923.37117-.0279999.6533003,0,.2820997,0,.6384001-.0130005,1.0690002,0,.4305-.0139923.9798994-.0139923,1.6331997v2.3606997c0,.1633005.0820007.2820005.2599945.3563004.177002.0741997.3959961.1039.6410065.1039.0549927,0,.095993.0297003.1230011.0741997.0269928.0446005.0410004.1040001.0410004.1634007,0,.1484003-.0540009.2375002-.1640015.2375002-.0950012,0-.3000031,0-.628006-.0297012-.3139954-.0147991-.723999-.0296993-1.2149963-.0296993-.4920044,0-.8740082,0-1.173996.0296993-.3010101.0149002-.506012.0297012-.6150055.0297012-.0540009,0-.0950012-.0297012-.1230011-.0741997-.0269928-.0446014-.0410004-.1039009-.0410004-.1633005,0-.1485004.0550079-.2227001.1779938-.2227001.2460022,0,.4640045-.0446005.6420135-.1188002.1769867-.0742998.2589874-.1929998.2589874-.3563004v-5.5528898c0-.1484699-.0820007-.2672396-.2589874-.3563299-.178009-.0742302-.3960114-.1187696-.6420135-.1187696-.0549927,0-.095993-.0297003-.1229858-.0742407-.0270081-.0445395-.0410004-.1039295-.0410004-.1633196,0-.1484699.0549927-.2375498.1779938-.2375498.1089935,0,.3820038,0,.845993.0296898.451004.0148497,1.0240021.0296898,1.7070007.0296898.1640015,0,.2460022.1187801.2460022.3414898v.3711805"/>
      <path class="st1" d="M163.7599945,8.8750904c.3960114-.2524099.9020081-.3860292,1.5160065-.3860292.7649994,0,1.3659973.1930094,1.7890015.5641899.4230042.3860292.6419983.99473.6419983,1.8410301v4.2907991c0,.1634007.0950012.2821007.272995.3564005.177002.0741997.3820038.1039.6410065.1039.0549927,0,.095993.0297003.1230011.0741997.0279999.0446005.0410004.1040001.0410004.1634007,0,.1484003-.0540009.2375002-.1640015.2375002-.0950012,0-.3000031,0-.628006-.0297012-.3139954-.0147991-.7229919-.0296993-1.2149963-.0296993-.4909973,0-.8739929,0-1.173996.0296993-.3010101.0149002-.5050049.0297012-.6150055.0297012-.0540009,0-.0950012-.0297012-.1230011-.0741997-.0269928-.0446014-.0410004-.1039009-.0410004-.1633005,0-.1485004.0550079-.2227001.1640015-.2227001.2460022,0,.4649963-.0446005.6419983-.1188002.178009-.0742998.2600098-.1929998.2600098-.3564005v-3.9640999c0-.5938997-.0960083-1.0393-.2740021-1.3659801-.177002-.3117895-.5180054-.4751091-.9960022-.4751091-.5469971,0-.9830017.1781693-1.3249969.5196495-.3410034.3414402-.5050049.8759403-.5050049,1.5738401v3.7116995c0,.1634007.095993.2821007.2590027.3564005.1779938.0741997.3959961.1039.6419983.1039.0549927,0,.095993.0297003.1230011.0741997.0269928.0446005.0410004.1040001.0410004.1634007,0,.1484003-.0550079.2375002-.177002.2375002-.0960083,0-.3009949,0-.6150055-.0297012-.3139954-.0147991-.723999-.0296993-1.2149963-.0296993-.4920044,0-.8739929,0-1.173996.0296993-.3010101.0149002-.5059967.0297012-.6150055.0297012-.0549927,0-.0950012-.0297012-.1230011-.0741997-.0269928-.0446014-.0410004-.1039009-.0410004-.1633005,0-.1485004.0550079-.2227001.1640015-.2227001.2460022,0,.4640045-.0446005.6419983-.1188002.177002-.0742998.2730103-.1929998.2730103-.3564005V6.0838207c0-.1484699-.0960083-.2672501-.2730103-.3563299-.1779938-.0742402-.3819885-.1187801-.6419983-.1187801-.0549927,0-.0950012-.0296898-.1230011-.0890799-.0269928-.0593901-.0410004-.1187801-.0410004-.1781702,0-.1484699.0550079-.2227097.1640015-.2227097h2.5400085c.1640015,0,.2459869.1187797.2459869.3414898,0,.0890799,0,.2227101-.0139923.3711801,0,.1484699-.0140076.3711801-.0140076.6384301s0,.62358-.0269928,1.0541401v2.2270799c.2460022-.3563299.572998-.6681204.9689941-.9205303"/>
      <path class="st1" d="M171.9259949,9.8995512c-.2869873.5939293-.4369965,1.4105291-.4369965,2.4646292,0,.5048008.0410004.9651003.1090088,1.3659.0679932.4158001.1769867.7721004.3139954,1.0690002.1360016.2969999.3139954.5345001.5189972.6829996.2050018.1633005.4499969.2376003.7100067.2376003.2869873,0,.54599-.0742998.7509918-.2376003.2050018-.1632996.3820038-.3859997.5189972-.6829996.1360016-.2968998.2450104-.6532001.3000031-1.0690002.0680084-.4157.0960083-.8758993.0960083-1.3659,0-1.0541-.1370087-1.8706999-.4240112-2.4646292-.2859955-.5938902-.6959991-.89083-1.2419891-.89083-.5460052,0-.9420013.2969398-1.2290039.89083M174.6289978,8.7563208c.451004.1930103.8470001.4454098,1.1609955.8017502.3270111.3414803.5730133.7572098.7510071,1.2323093.177002.4751005.272995,1.0096006.272995,1.5886002,0,.5791006-.095993,1.1136007-.2870026,1.6035004-.1909943.4750996-.4499969.8908997-.7649994,1.2323999-.3269958.3414001-.7099915.6086998-1.1599884.7869005-.451004.1929989-.9290009.2819996-1.447998.2819996-.5180054,0-.9960022-.0890007-1.4470062-.2819996-.4499969-.1931009-.8330078-.4455004-1.1609955-.8018007-.3270111-.3415003-.5870056-.7572002-.7779999-1.2322998-.1910095-.4750996-.2870026-1.0095997-.2870026-1.5887003,0-.5789995.095993-1.0985994.2870026-1.5738001.1909943-.4750996.4509888-.8907795.7649994-1.2322693.3279877-.3414803.7099915-.6087303,1.173996-.8017406.451004-.1930199.9290009-.2820997,1.4470062-.2820997.5189972,0,1.0379944.0890799,1.4889984.2820997"/>
      <path class="st1" d="M184.9380035,13.8340805c-.20401.5790005-.4779968,1.0541-.8190002,1.4104004-.3410034.3711996-.723999.6236-1.1600037.7869005-.423996.1633987-.8739929.2375984-1.3249969.2375984s-.8470001-.0593987-1.2290039-.1929989c-.3820038-.1188002-.7099915-.3118-.996994-.5494003-.2860107-.2375002-.5189972-.5345001-.6690063-.8907995-.1640015-.3563004-.2449951-.7720003-.2449951-1.2323008v-3.75634c0-.1633196-.0960083-.2820892-.2600098-.3711796-.1769867-.0742302-.3959961-.1187696-.6419983-.1187696-.0540009,0-.0950012-.0297003-.1230011-.0742407-.0269928-.0445395-.0410004-.1039295-.0410004-.1633196,0-.1484699.0550079-.2227001.178009-.2227001s.3820038,0,.8329926.0296898c.4500122.0148506,1.0240021.0296898,1.7070007.0296898.1640015,0,.2450104.1187801.2450104.3414907,0,.0890799,0,.20786-.0130005.3563299,0,.1484699-.0140076.3266401-.0140076.5493498,0,.2227001,0,.4899998-.0269928.8016996,0,.3118-.0140076.6979008-.0140076,1.1284008v1.8855991c0,.6236.1230011,1.0690002.3549957,1.3511.2320099.2821007.5740051.4157009.9970093.4157009.2319946,0,.4640045-.0445004.6689911-.1336002.2190094-.0890999.3960114-.2524004.5600128-.4751005.1639862-.2227001.2869873-.5345001.3819885-.9354.0960083-.4007998.1370087-.8907995.1370087-1.4994993,0-.6087999-.0140076-1.1284008-.0550079-1.6629-.0410004-.5345001-.0820007-.9353905-.1360016-1.2323408-.0690002-.3266296-.3549957-.4899492-.8739929-.4899492-.0550079,0-.1100006-.0297003-.1370087-.0742407-.0269928-.0445395-.0410004-.1039295-.0410004-.1633196,0-.1484699.0550079-.2227001.178009-.2227001h.3000031c.1499939,0,.3279877,0,.5329895.0148401.20401,0,.4370117,0,.6959991.0148497h.7510071c.1089935,0,.1909943.0296898.272995.0742407.0820007.0593796.1370087.1781597.1910095.3860197.0549927.20786.0820007.5048103.1089935.9056997.0140076.3859997.0279999.9354.0279999,1.6035004,0,.8463001-.1089935,1.5440998-.3139954,2.1230993"/>
      <path class="st1" d="M189.0890045,15.1851805c0,.1633005.0820007.2821007.2599945.3563004.177002.0741997.3959961.1039.6419983.1039.0540009,0,.0950012.0297003.1220093.0742998.0279999.0445004.0410004.1039.0410004.1633005,0,.1484003-.0540009.2375002-.1630096.2375002-.095993,0-.3009949,0-.6149902-.0297012-.3140106-.0147991-.7100067-.0296993-1.2020111-.0296993-.4909973,0-.8730011,0-1.1869965.0296993-.3150024.0149002-.5189972.0297012-.6289978.0297012-.0540009,0-.0950012-.0297012-.1220093-.0741997-.0279999-.0445004-.0409851-.1039009-.0409851-.1633005,0-.1485004.0539856-.2227001.1769867-.2227001.2460022,0,.4640045-.0446005.6420135-.1188002.1769867-.0741997.272995-.1929998.272995-.3563004v-5.5528793c0-.1484709-.0820007-.2672501-.272995-.3414803-.178009-.0742397-.3820038-.1187801-.6420135-.1187801-.0549927,0-.0950012-.0297003-.1230011-.0742397-.0269928-.0445404-.0410004-.1039305-.0410004-.1633205,0-.1484699.0550079-.2375498.178009-.2375498.1089935,0,.3679962,0,.7779999.0296898.4100037.0148506.9559937.0297003,1.6389923.0297003.0820007,0,.1500092.0296898.177002.0890799.0270081.0593901.0550079.1484699.0820007.2524004.0140076.0890894.0410004.20786.0410004.3414898v.3711796c.2460022-.3563299.572998-.6681299.9560089-.9205294.3959961-.2524004.901001-.3860207,1.5149994-.3860207.7649994,0,1.3659973.1930103,1.7890015.5641899.4229889.3860302.6419983.9947701.6419983,1.8410702v4.2908001c0,.1633005.095993.2820997.272995.3563004.1779938.0742998.3820038.1040001.6419983.1040001.0540009,0,.0950012.0296993.1230011.0741997.0270081.0445004.0410004.1039.0410004.1633005,0,.1485004-.0549927.2376003-.1779938.2376003-.0950012,0-.3000031,0-.628006-.0297012-.3280029-.0149002-.723999-.0296993-1.2149963-.0296993-.4920044,0-.8740082,0-1.1750031.0296993-.3139954.014801-.5180054.0297012-.6139984.0297012-.0550079,0-.0960083-.0297012-.1230011-.0743008-.0270081-.0445004-.0410004-.1039-.0410004-.1632996,0-.1484003.0549927-.2227001.1779938-.2227001.2450104,0,.4640045-.0445004.6410065-.1188002.1779938-.0742006.2740021-.1929998.2740021-.3563004v-3.9642c0-.5938997-.0960083-1.0393-.2740021-1.3659201-.177002-.3117895-.5180054-.4751101-.9960022-.4751101-.5469971,0-.9830017.1781607-1.3249969.5196505-.3410034.3414803-.5050049.8759794-.5050049,1.5737801v3.7117996l-.0139923-.0148001Z"/>
      <path class="st1" d="M201.1049957,10.8200806c0-.5641994-.1499939-.9947796-.4369965-1.2917194-.2859955-.2969408-.6410065-.4454203-1.0509949-.4454203-.2870026,0-.5460052.0742397-.7510071.20786-.2180023.1484795-.3959961.3414898-.54599.5938902-.1500092.2523899-.2600098.5493898-.3280029.9056892-.0680084.3415003-.1090088.7275009-.1090088,1.1284008,0,1.1728992.1500092,2.0636997.451004,2.7021999.3000031.6384001.7510071.9502001,1.3509979.9502001.1910095,0,.3690033-.0297003.5460052-.1040001.1779938-.0742006.3280029-.1781006.451004-.3266001.1229858-.1485004.2319946-.3415003.3139954-.5790005.0820007-.2375994.1230011-.5345001.1230011-.8759995v-2.8804007l-.0140076.0149002ZM202.9210052,15.1850804c0,.1634007.0820007.2673006.2599945.3564005.177002.0741997.3820038.1188002.6419983.1188002.1220093,0,.177002.0741997.177002.2375002,0,.0593996-.0140076.1187992-.0410004.1632996-.0269928.0445995-.0679932.0743008-.1230011.0743008-.1089935,0-.3679962,0-.7919922-.0297012-.4230042-.0149002-.9690094-.0296993-1.6380005-.0296993-.178009,0-.2730103-.2821007-.2870026-.8315001-.1910095.3118-.451004.5641994-.7779999.7424002-.3280029.1781998-.7510071.2672005-1.2700043.2672005-.4230042,0-.8329926-.0890007-1.2149963-.2672005-.3829956-.1782007-.723999-.4454002-1.0240021-.7869005-.3009949-.3415003-.5330048-.7572002-.7109985-1.2322998-.177002-.4899998-.2590027-1.0244999-.2590027-1.6331997,0-.5345001.095993-1.0393.272995-1.4996004.178009-.4750996.4230042-.8759499.723999-1.2322903.3000031-.3563299.6420135-.6384201,1.0240021-.83144.3820038-.20786.7649994-.3117895,1.1740112-.3117895.5189972,0,.9559937.0890894,1.3249969.2672501.3549957.1781702.6279907.4305696.7919922.7572098.20401-.1187801.3820038-.2524004.5319977-.3860302.1500092-.1336203.3010101-.2523994.4230042-.3563299.1230011-.1039295.2330017-.1930103.3150024-.2672501.0809937-.0593901.1629944-.1039295.2319946-.1039295.0820007,0,.1360016.0296898.177002.0742397.0410004.0445404.0680084.1633101.0680084.3266296v6.3843307"/>
      <path class="st1" d="M80.7003021,21.8366812c.1228943,0,.2184982.0296993.2866974.0890999.0682983.0445004.1365967.1336002.2049026.2523994.0545959.0741997.1364975.1781006.218399.2821007.0955963.103899.1912003.2227001.2867966.3265991.0956039.1039009.2048035.2227001.314003.326601.1092987.1040001.2047958.1931.3141022.2820988.2866974-.2374992.546196-.4898987.7919006-.7572002.2457962-.2671986.3959961-.4601994.4642944-.6086998.0546036-.0890999.1229019-.1484985.2321014-.1929989.1092987-.0297012.2048035-.0594006.2868042-.0594006.1501999,0,.2593994.014801.3139954.0445004.0546036.0296993.0819016.0742989.0819016.1187992,0,.0149002,0,.0594006-.027298.0890999-.0956039.1485004-.2458038.326601-.4642029.5195999-.2048035.207901-.4233017.4008999-.6417999.5939007-.2184982.1931-.4233017.3712006-.6144028.519701-.1912003.1484985-.3140945.2523994-.3824005.2968998-.1364975.0742989-.272995.1040001-.4095993.1040001-.1091995,0-.2047958-.0149002-.3003998-.0594006-.0818939-.0445995-.2320938-.1336994-.4368973-.2821007-.2048035-.1485004-.4233017-.3267002-.6554031-.5047989-.2322006-.1930008-.4642944-.3712006-.6690979-.5345001-.2047958-.1633015-.3686981-.2970009-.4643021-.3861008-.0954971-.1187-.1501999-.2077999-.1501999-.2819996,0-.1188011.0956039-.1781998.2731018-.1781998h1.1470032ZM85.5066986,33.6549796c-.2047958.3861008-.4643021.7424011-.7919998,1.0690002-.3276978.3267021-.7237015.5791016-1.1878967.7868996-.4643021.207901-1.0241013.3118019-1.6659012.3118019-.7782974,0-1.4609985-.1632996-2.0481033-.4751015-.5871964-.3117981-1.0786972-.7423973-1.4747009-1.2619972-.3959961-.5197029-.6963959-1.1284027-.8875961-1.8114014-.1911011-.6829014-.3003998-1.3956013-.3003998-2.1231003,0-.7275009.1092987-1.4549999.3277969-2.1231003.218399-.6830006.5325012-1.2768993.9421005-1.7966003.4095993-.5195999.9149017-.9352989,1.5157013-1.2470989.6007004-.3118,1.2835007-.4751015,2.0481033-.4751015.6826935,0,1.2288971.1188011,1.6385956.3712006.4095993.2523994.7373047.5493011.9967041.8759003.0682983-.0296993.1365967-.1336002.1912003-.2968998.0545959-.1632996.0682983-.3712006.0682983-.6086998,0-.1634007.0954971-.2523994.3003998-.2523994.0681992,0,.1364975.0147991.1911011.0592995.0545959.0445995.0820007.1040001.0820007.2078991,0,.5939007,0,1.1431999.027298,1.6629009.027298.5047989.0681992.9799004.1364975,1.4252987.0137024.0891018.0273056.1336002.0273056.1633015,0,.0890999-.0273056.1484985-.0819016.1781998-.0546036.0296993-.1091995.0594006-.1639023.0594006-.0819016,0-.1501999-.0149002-.2321014-.0594006s-.1364975-.1039009-.1637955-.1930008c-.2868042-.9947987-.6555023-1.7222996-1.1197052-2.2122002-.4642944-.4899998-1.065094-.727499-1.8023987-.727499-.4778976,0-.9011993.1483994-1.2425995.4305-.3550034.2820988-.6417007.6532993-.8738022,1.1135998-.2322006.4601994-.3959961.9799004-.5052948,1.5737991-.1091995.5938015-.1638031,1.2026005-.1638031,1.8262005,0,.6235008.0546036,1.2322998.1774979,1.8262005.1229019.5937996.3003998,1.1134987.5325012,1.5737991.2458038.4602013.5598984.8314018.9558029,1.1134987.3959961.2821007.8602982.430603,1.406395.430603.3687057,0,.7101059-.0743027,1.0241013-.222702.3141022-.1484985.614502-.3563995.8739014-.5938988.2593994-.2376022.4778976-.5196991.6554031-.831501.1774979-.3117981.3140945-.6236.3959961-.9352989.027298-.1040001.0819016-.1781998.1366043-.2228012.0681992-.0444984.1364975-.0741997.218399-.0741997.0682983,0,.1365967.0297012.2047958.0890999.068306.0594025.0956039.1485023.068306.2672005-.1092072.3712006-.2731018.7424011-.4779053,1.1283989"/>
      <path class="st1" d="M91.5009995,30.9973811c0-.8908005-.1091995-1.5144005-.3141022-1.8558998-.218399-.3415012-.5324936-.5048008-.9693985-.5048008-.1774979,0-.3549957.0445004-.518898.1188011-.1638031.0889988-.314003.2227001-.4368973.4007988-.1229019.1931-.2322006.4306011-.3141022.7275009-.0819016.296999-.1365051.6681995-.1638031,1.0986996h2.7172012v.0149002ZM88.7565002,31.6506804v.1930008c0,.6236.0409012,1.1431999.1364975,1.5737991.0956039.4305.2185059.7719994.3823013,1.0243988.1639023.2524033.3550034.430603.5735016.5494003.2184982.1039009.4505997.1632996.7099991.1632996.4643021,0,.8739014-.1187973,1.2153015-.3711967.341301-.2375031.6143951-.5642014.8055954-.9799004.068306-.1485023.1912003-.207901.3687057-.207901.0818939,0,.1364975.0149002.1637955.0742989.0410004.0445023.0410004.1039009.0137024.1781006-.0956039.2376022-.2184982.4751015-.3823013.7126999-.1639023.2376022-.3686981.4603004-.6007996.638401-.2457962.1930008-.518898.3414993-.8465958.4603004-.3277054.1187973-.6964035.1781998-1.1197052.1781998-.4505997,0-.8874969-.0890999-1.2971954-.2672997-.4232025-.1781998-.7919006-.4454002-1.1060028-.7868996-.314003-.3415031-.5735016-.7423019-.7509995-1.2322998-.1911011-.4751015-.2866974-1.0096016-.2866974-1.6035023,0-.5641994.0955963-1.0837994.2730942-1.5588989.1775055-.4752007.4369049-.8908997.7509995-1.2324009.314003-.3563004.6964035-.6234989,1.119606-.8165989.4369965-.1930008.8875961-.2968998,1.379097-.2968998.4916,0,.9284973.0890999,1.3108978.2968998.3685989.1931.6827011.4454994.9421005.7572002.2458038.3266983.4370041.6829987.5598984,1.0986996.1228027.4158001.1911011.8463001.1911011,1.2917004-.0819016.0296993-.341301.0593987-.764595.1039982-.4233017.0297012-1.0787048.0594006-1.9526062.0594006h-.5051956c-.1501999,0-.2868042,0-.4096985-.0149002-.1229019,0-.2593994,0-.3959045-.0296993-.1365967,0-.2867966-.014801-.4369965-.0296993-.0136032.0148983-.027298.0593987-.027298.1040001"/>
      <path class="st1" d="M94.9419022,34.9169806c-.0546036.1040001-.0955048.1781998-.1228027.2523994-.0273972.1040001-.0955963.1485023-.2049026.1485023-.1364975,0-.2047958-.0445023-.2047958-.1485023,0-.0890007,0-.2226982.0410004-.4007988.027298-.1930008.027298-.4454002.027298-.7721024,0-.3265991,0-.6086998-.027298-.7868996-.0137024-.192997-.027298-.3265991-.027298-.3859978,0-.1188011.0545959-.1781998.1774979-.1781998.1091995,0,.1637955.0149002.1911011.0593987.0273972.0297012.0410004.1039009.0682983.1781998.0545959.3860016.1774979.7275009.3549957,1.0243988.1775055.2970009.3824005.5345001.6281052.7424011.2322006.1930008.4916.3414993.7647018.4305992.2730942.0890007.5324936.1484032.7782974.1484032.4505997,0,.805603-.0890999,1.0923004-.2969017.2731018-.1930008.4233017-.4900017.4233017-.8759995,0-.1930008-.0409012-.3414993-.1365051-.4900017-.0955963-.1335983-.2184982-.2523994-.3959961-.3563004-.1774979-.1038971-.3960037-.192997-.6554031-.2671967-.2593994-.0743027-.5597992-.1634026-.9011993-.2524033-.3276978-.0890999-.6280975-.2078972-.9148026-.3266983-.2867966-.1188011-.5326004-.2821007-.7509995-.4602013-.2184982-.1929989-.3824005-.4157982-.518898-.6681995-.1229019-.2523994-.1912003-.5790005-.1912003-.9352989,0-.3118.0547028-.6088009.1639023-.8760014.1091995-.2820988.2593994-.5196991.4778976-.7126999.2048035-.1929989.4642029-.3562984.7646027-.4601994.3003998-.1187992.6417999-.1781998,1.0241013-.1781998.4369965,0,.832901.0741997,1.1742935.2078991.3414001.1336002.614502.2968998.8193054.4899006.1364975-.1632996.218399-.3118.2457962-.4750996.0273056-.1039009.0955048-.1485004.2048035-.1485004.1364975,0,.2047958.0594006.2047958.1930008,0,.2523994.0410004.4899998.068306.7276001.0408936.2374992.0818939.4601994.1227951.6383991.0410004.1930008.0820007.3414993.1229019.4750996.0410004.1336002.0547028.207901.0547028.2375011,0,.0742989-.0274048.1187992-.068306.1484985-.0545959.0297012-.1092987.0446014-.1774979.0446014-.0545959,0-.0955963,0-.1229019-.0297012-.027298-.0149002-.0545959-.0742989-.0955963-.1484985-.1912003-.5345001-.5052032-.950201-.9284973-1.2769012-.4369049-.3118-.9558029-.4750996-1.5566025-.4750996-.4369049,0-.7509995.0890999-.9284973.2523994-.1775055.1781998-.2731018.3861008-.2731018.6236,0,.2970009.1638947.5494003.4916.7275009.3276978.1781998.7919006.3563995,1.3653946.5196991.3687057.0890999.7100067.2077999,1.0241013.3563004.314003.1336002.5735016.3118.805603.5048008.2321014.1929989.3959961.4305992.5325012.7126999.1228943.2821007.1908951.5938988.1908951.9650002,0,.4305992-.0680008.8166008-.2182007,1.1283989-.1501999.3118019-.3412933.5791016-.5870972.7868996-.2457962.207901-.5325012.3563995-.8465958.4603004-.314003.1039009-.6554031.1484985-.9968033.1484985-.4642029,0-.9148026-.0890999-1.3380966-.2969971-.4233017-.1930008-.7647018-.4899025-1.0241013-.8610992-.068306.0741997-.1229019.1632996-.1775055.2523994"/>
      <path class="st1" d="M106.0699997,31.9030798c.3420029.1930008.6279984.4157028.8740005.6828995.2460022.2672997.4509964.5642014.6009979.8908997.1640015.3266029.2730026.638401.3550034.9502029.0680008.3117981.2190018.5195999.409996.6383972.2040024.1039009.4370041.1633034.6959991.1633034.0550003,0,.0960007.0296974.137001.0742989.0270004.0444984.0410004.0890007.0410004.1632996,0,.1483994-.0550003.2226982-.1780014.2226982-.095993,0-.272995,0-.5319977-.0296974-.2600021-.0149002-.6419983-.0297012-1.1340027-.0297012-.2049942,0-.4089966,0-.6139984.0297012-.2049942,0-.3689957.0296974-.4779968.0296974-.2050018,0-.3010025-.1335983-.3010025-.415699,0-.4899979-.0680008-.9353981-.1910019-1.3362999-.1229935-.415699-.2859955-.7571983-.4779968-1.0541-.2040024-.2970009-.4369965-.5345001-.7229996-.6978989-.2870026-.1632996-.586998-.2524014-.9290009-.2820015v2.8803024c0,.3265991.2460022.4899979.723999.4899979.0540009,0,.0950012.014801.1360016.0592995.0279999.0446014.0410004.1040001.0410004.1634026,0,.1483994-.0540009.207798-.177002.207798-.0960007,0-.272995,0-.5329971-.0297012-.2590027-.0147972-.6279984-.0296974-1.1190033-.0296974-.4919968,0-.8740005,0-1.1749954.0296974-.3000031,0-.5180054.0297012-.614006.0297012-.0550003,0-.095993-.014801-.1369934-.0741997-.0270004-.0446014-.0410004-.1039009-.0410004-.1632996,0-.1484985.0550003-.222702.1779938-.222702.2460022,0,.4640045-.0445976.6420059-.1187973.1769943-.0741997.272995-.1930008.272995-.3563004v-9.1014004c0-.1483994-.0960007-.2672005-.272995-.3563004-.1780014-.0741997-.3960037-.1187992-.6420059-.1187992-.0550003,0-.095993-.0297012-.1369934-.0890007-.0270004-.0594006-.0410004-.1187992-.0410004-.1781998,0-.1485004.0550003-.2227001.1779938-.2227001h2.5530014c.1640015,0,.2460022.1187992.2460022.3414993,0,.0890007,0,.2227001-.0139999.3711014,0,.1633987-.0130005.3711987-.0270004.6385002,0,.2671986,0,.6236-.0270004,1.0541,0,.4305992-.0139999.9798985-.0139999,1.6331997v2.5833988c.3420029,0,.6419983-.0890999.901001-.2374992.2730026-.1485004.4919968-.3267002.6689987-.5345001.1780014-.2078991.3280029-.4305992.4100037-.6681995.0960007-.2375011.1499939-.4454002.1499939-.6235008,0-.1633987-.0539932-.3118-.1499939-.4158001-.0950012-.103899-.2590027-.1632996-.4910049-.1632996-.1100006,0-.1780014-.0741997-.1780014-.2374992,0-.0594006.0139999-.1188011.0410004-.1634007.0270004-.0445004.0680008-.0741997.1230011-.0741997.1090012,0,.314003,0,.6139984.0296993.3010025.014801.6970062.0296993,1.1750031.0296993s.9140015,0,1.2689972-.0296993c.3550034-.0147991.5880051-.0296993.6830063-.0296993.1229935,0,.1779938.0741997.1779938.2376003,0,.0593987-.0139999.1187-.0410004.1632996-.0279999.0445004-.0689926.0741997-.1369934.0741997-.3550034,0-.614006.0594006-.7779999.1632996-.1640015.1040001-.314003.2821007-.4640045.5494003-.3009949.5345001-.6969986.9799004-1.1749954,1.3362007-.4780045.3711987-.9960022.6236-1.5699997.7572002.4509964.0593987.8470001.1929989,1.1879959.3711987"/>
      <path class="st1" d="M114.5770035,25.8008803c-.2590027.2077999-.5190048.4157009-.7779999.6086998-.2730026.1930008-.5330048.3563004-.7919998.519701-.2600021.1632996-.4920044.2968998-.7100067.4007988-.1089935.0446014-.2049942.0891018-.2869949.1040001-.0960007.014801-.2050018.0297012-.3280029.0297012s-.1910019-.0594006-.1910019-.1634007c0-.0741997.0410004-.1336002.137001-.2077999.1640015-.1187992.3270035-.2523994.5050049-.4008999.1769943-.1632996.3279953-.3265991.4779968-.5048008.1500015-.1781998.2870026-.3562984.4089966-.5492992.1230011-.1931.2190018-.3712006.3010025-.5494003.0410004-.103899.0950012-.1780987.1910019-.2227001.0820007-.0445004.177002-.0593987.2870026-.0593987h1.3379974s.1090012.0148983.1360016.0593987c.0279999.0297012.0410004.0741997.0410004.1188011,0,.0741997-.0270004.1336002-.0680008.1929989-.1910019.207901-.4100037.4157009-.6689987.638401M114.0719986,31.0121802c0-.8907986-.1090012-1.5143986-.3139954-1.8558998-.2050018-.3414001-.5330048-.5047989-.9560013-.5047989-.1780014,0-.3550034.0445995-.5190048.1187992-.1639938.0890999-.3139954.2227001-.4369965.4008999-.1360016.1930008-.2320023.4306011-.314003.7275009s-.135994.6680984-.1640015,1.0986996h2.7170029l-.0130005.0147991ZM111.3410034,31.6654814v.1929989c0,.6236019.0410004,1.143301.135994,1.573801.0960007.4305992.2190018.7720985.3830032,1.024498.1640015.2524033.3549957.4305.572998.5493011.2190018.1040001.465004.1632996.7099991.1632996.465004,0,.8740005-.1186981,1.2160034-.3710976.3409958-.2376022.6139984-.5642014.8050003-.9800034.0680008-.1483994.1910019-.207798.3689957-.207798.0820007,0,.1360016.014801.177002.0741997.0410004.0446014.0410004.1040001.0139999.1781998-.0960007.2374992-.2180023.4751015-.3819962.7126999-.1640015.2374992-.3690033.4602013-.6010056.638401-.2319946.1930008-.5189972.3414993-.8470001.4601974-.3269958.1188011-.6959991.1782036-1.1189957.1782036-.451004,0-.8880005-.0890999-1.2980042-.2672005-.4229965-.1781998-.7779999-.4454994-1.1059952-.7868996-.314003-.3415031-.5730057-.7424011-.7639999-1.2324028-.1910019-.4750977-.2870026-1.0095978-.2870026-1.6033993,0-.5641994.0960007-1.0839005.2730026-1.559.1780014-.4750996.4369965-.8908005.7509995-1.2322998.3139954-.3563004.6829987-.6236,1.1199951-.8165989.4230042-.1930008.887001-.2970009,1.3790054-.2970009.4909973,0,.9280014.0890999,1.310997.2970009.3680038.1929989.6819992.4453983.9420013.7571983.2590027.326601.4369965.6830006.572998,1.0987015.1230011.415699.1920013.8463001.1920013,1.2916985-.0820007.0297012-.3420029.0594006-.7789993.1039009-.4230042.0296993-1.0780029.0594006-1.9660034.0594006h-.5049973c-.1500015,0-.2870026,0-.4100037-.014801-.1229935,0-.2589951,0-.3959961-.0296993-.1360016,0-.2870026-.0149002-.4370041-.0297012,0,.014801-.0129929.0594006-.0129929.1039009"/>
      <path class="st1" d="M125.8420029,30.2698801c-.0680008.1188011-.137001.1930008-.2190018.1930008s-.1500015-.0445995-.2040024-.1336002c-.0960007-.2078991-.2330017-.3861008-.423996-.5345001-.1910019-.1485004-.4500046-.2227001-.7779999-.2227001-.1640015,0-.314003.0297012-.4780045.1039009-.1500015.0741997-.2999954.1929989-.4229965.3563004-.1230011.1632996-.2320023.3711987-.3010025.6235981-.0820007.2673016-.1220016.5790005-.1220016.950201v3.1327991c0,.3118019.4500046.4751015,1.3380051.4751015.0540009,0,.0949936.0296974.135994.0741997.0279999.0446014.0410004.1039009.0410004.1632996,0,.1633987-.0540009.2375984-.1769943.2375984h-.2870026c-.137001,0-.314003,0-.5189972-.0149002-.2050018,0-.4230042,0-.6690063-.0147972h-.723999c-.4779968,0-.8740005,0-1.2149963.0296974-.3280029,0-.5459976.0297012-.6549988.0297012-.0550003,0-.0960007-.0149002-.137001-.0742989-.0270004-.0445023-.0410004-.1039009-.0410004-.1632996,0-.1483994.0550003-.222702.1780014-.222702.2449951,0,.4639969-.0444984.6409988-.1187973.1780014-.0742035.2600021-.1930008.2600021-.3563004v-5.5528011c0-.1485004-.0960007-.2672997-.2600021-.3563995-.177002-.0742016-.3960037-.1187-.6409988-.1187-.0550003,0-.0960007-.0149002-.137001-.0743008-.0270004-.0445004-.0410004-.1039009-.0410004-.1632996,0-.1485004.0550003-.2375011.1780014-.2375011.1090012,0,.3549957,0,.7779999.0296001.409996,0,.9560013.0149002,1.6520004.0149002.0820007,0,.1499939.0297012.1779938.0890999.0270004.0594006.0540009.1484013.0820007.2524014,0,.0444984.0130005.1187992.0130005.2374992,0,.1187992,0,.2376003.0139999.3712006v.6532993c.1090012-.2227001.2460022-.4305992.3960037-.6532993.1640015-.2227001.3279953-.4157009.5319977-.5939007.1920013-.1781006.4100037-.3265991.6559982-.4305.2460022-.1040001.4910049-.1634007.7779999-.1634007.1640015,0,.314003.0149002.4640045.0594006.151001.0445995.272995.0890999.3829956.1632996.1090012.0743008.2040024.1485004.2730026.2228012.0680008.0889988.1090012.1780987.1090012.2671986s-.0270004.1782017-.0820007.3118l-.5459976,1.2026005v-.0445004Z"/>
      <path class="st1" d="M131.0850067,30.9973811c0-.8908005-.1090088-1.5144005-.3140106-1.8558998-.2050018-.3415012-.5319977-.5048008-.9559937-.5048008-.177002,0-.3549957.0445004-.5180054.1188011-.1640015.0889988-.3150024.2227001-.4369965.4007988-.1369934.1931-.2330017.4306011-.3139954.7275009-.0820007.296999-.1370087.6681995-.1640015,1.0986996h2.7169952l-.0139923.0149002ZM128.3410034,31.6506804v.1930008c0,.6236.0410004,1.1431999.1499939,1.5737991.0950012.4305.2180023.7719994.3820038,1.0243988.1640015.2524033.3549957.430603.5740051.5494003.2179871.1039009.4499969.1632996.7099915.1632996.4640045,0,.8740082-.1187973,1.2149963-.3711967.3410034-.2375031.6139984-.5642014.8059998-.9799004.0680084-.1485023.1910095-.207901.3820038-.207901.0680084,0,.1360016.0149002.1640015.0742989.0410004.0445023.0410004.1039009.0130005.1781006-.0950012.2376022-.2180023.4751015-.3820038.7126999-.1640015.2376022-.3690033.4603004-.6009979.638401-.2449951.1930008-.5189972.3414993-.845993.4603004-.3280029.1187973-.6970062.1781998-1.1200104.1781998-.4509888,0-.8869934-.0890999-1.2969971-.2672997-.4230042-.1781998-.7919998-.4454002-1.1059952-.7868996-.314003-.3415031-.5740051-.7423019-.7649994-1.2322998-.1910019-.4751015-.2870026-1.0096016-.2870026-1.6035023,0-.5641994.0960007-1.0837994.2740021-1.5588989.1769943-.4752007.4229965-.8908997.7509995-1.2324009.3139954-.3563004.6819916-.6234989,1.1190033-.8165989.423996-.1930008.8880005-.2968998,1.3789978-.2968998.4920044,0,.9290009.0890999,1.3110046.2968998.368988.1931.6829987.4454994.9419861.7572002.2600098.3266983.4370117.6829987.5600128,1.0986996.1230011.4158001.1909943.8463001.1909943,1.2917004-.0820007.0296993-.3410034.0593987-.7640076.1039982-.423996.0297012-1.0789948.0594006-1.9529877.0594006h-.5050049c-.1499939,0-.2870026,0-.4100037-.0149002-.1360016,0-.2590027,0-.3959961-.0296993-.1360016,0-.2859955-.014801-.4369965-.0296993,0,.0148983-.0270081.0593987-.0270081.1040001"/>
      <path class="st1" d="M136.1649933,33.506481c0,.5642014.1500092.9799995.4370117,1.2621002.2999878.2819977.6409912.4305,1.0509949.4305.2870026,0,.5330048-.0741997.7510071-.222702.2189941-.1484985.3959961-.3414993.5329895-.6086998.1360016-.2672997.2590027-.5641975.3270111-.9204979.0819855-.3563995.1229858-.7424011.1229858-1.1581001,0-1.143301-.1499939-2.0192013-.4369965-2.6428013-.2859955-.6236-.7369995-.9204998-1.3379974-.9204998-.177002,0-.3690033.0445004-.5460052.1039009-.1779938.0741997-.3279877.1781998-.4639893.3414993-.1370087.1483994-.2460022.3414993-.3280029.5939007-.0820007.2374992-.1230011.5345001-.1230011.8759003v2.8506985l.0139923.014801ZM134.348999,29.1711806c0-.1632996-.0820007-.2672997-.2599945-.3563995-.177002-.0741997-.3960114-.1187-.6410065-.1187-.1100006,0-.1779938-.0743008-.1779938-.2376003,0-.0594006.0139923-.1187992.0410004-.1632996.0269928-.0445995.0679932-.0741997.1230011-.0741997.1089935,0,.368988,0,.7919922.0296001.4230042.0148983.9690094.0296993,1.6380005.0296993.1640015,0,.2599945.2672997.2870026.8166008.1909943-.3118.451004-.5790005.7779999-.7869015.3280029-.2077999.7509918-.3118,1.2700043-.3118.4369965,0,.8470001.1040001,1.2289886.2970009.3830109.1929989.723999.4603004,1.0110016.8017006.2860107.3414993.5319977.7571983.6959991,1.2322998.177002.4899998.2590027,1.0244999.2590027,1.6183987,0,.534502-.0950012,1.0244007-.272995,1.4996014-.177002.4750977-.4230042.8759003-.7230072,1.2322998-.3009949.3563004-.6419983.6235008-1.0240021.831398-.3829956.207901-.7649994.2970009-1.1749878.2970009-.9960022,0-1.6790009-.2970009-2.0480042-.8759995v2.9990997c0,.0890999.0269928.1484985.095993.207901.0680084.0592995.1500092.1039009.2590027.1483994.1090088.0446014.2190094.0742989.3549957.0890999.1230011.0149002.2600098.0297012.3820038.0297012.0550079,0,.1100006.0296974.1370087.0741997.0269928.0445976.0410004.1040001.0410004.1633987,0,.1483994-.0550079.222702-.178009.222702-.0950012,0-.3269958,0-.7099915-.0297012-.3820038-.0149002-.8190002-.0297012-1.3099976-.0297012-.4920044,0-.8740082,0-1.1750031.0297012-.3000031.014801-.5189972.0297012-.6139984.0297012-.0550079,0-.0960083-.0149002-.1230011-.0743027-.0270081-.0444984-.0410004-.1038971-.0410004-.1632996,0-.1484985.0549927-.2226982.1779938-.2226982.2449951,0,.4640045-.0445023.6410065-.1188011.1779938-.0741997.2599945-.1930008.2599945-.3563004v-8.7747002"/>
      <path class="st1" d="M149.8880005,34.73888c0,.1632996.0809937.2821007.2590027.3563004.177002.0741997.3959961.1188011.6419983.1188011.0540009,0,.0950012.0296974.1230011.0741997.0269928.0446014.0410004.1039009.0410004.1632996,0,.1632996-.0550079.2375984-.178009.2375984-.1089935,0-.368988,0-.7779999-.0296974-.4099884,0-.9559937-.0149002-1.6389923-.0149002-.0820007,0-.1500092-.0297012-.177002-.0890007-.0279999-.0593987-.0549927-.1484985-.0820007-.2523994-.0279999-.0890999-.0410004-.222702-.0410004-.3861008v-.4602013c-.2189941.3712006-.5330048.6829033-.9559937.9502029-.4230042.2671967-.9420013.400898-1.5570068.400898-.7509918,0-1.3379974-.1930008-1.7610016-.5642014-.4100037-.3711967-.6139984-.9798965-.6139984-1.8261986v-4.2314987c0-.1633015-.0820007-.2821007-.2599945-.3563004-.177002-.0741997-.3959961-.1188011-.6419983-.1188011-.0540009,0-.0950012-.0147991-.1360016-.0741997-.0279999-.0445995-.0410004-.103899-.0410004-.1632996,0-.1485004.0540009-.2376003.177002-.2376003.095993,0,.3419952,0,.7509918.0296993.4100037.0149002,1.0110016.0297012,1.803009.0297012.1639862,0,.2449951.1187992.2449951.3414993,0,.0890999,0,.2077999-.0130005.3415012,0,.1335983-.0140076.3118-.0140076.5195999,0,.2078991,0,.4602985-.0269928.7720985,0,.3118-.0140076.6829014-.0140076,1.1135006v1.7223015c0,.6086998.0820007,1.0690002.2600098,1.3510971.177002.2821007.4909973.4305.9420013.4305.54599,0,.996994-.192997,1.3379974-.5641975.3410034-.3711014.5189972-.9205017.5189972-1.6183014v-3.5485001c0-.1632996-.095993-.2820988-.2599945-.3563004-.177002-.0741997-.3960114-.1187992-.6410065-.1187992-.0549927,0-.095993-.0147991-.1230011-.0741997-.0279999-.0445995-.0410004-.1039009-.0410004-.1632996,0-.1485004.0540009-.2376003.177002-.2376003h.3280029c.1640015,0,.3690033,0,.6009979.0149002.2319946,0,.4909973,0,.7779999.0147991h.8470001c.1640015,0,.2449951.1188011.2449951.3414993v.3563004c0,.1485004-.0130005.3118-.0269928.5345001,0,.207901,0,.4750996-.0140076.7868996v4.4245014l-.0399933.0593987Z"/>
      <path class="st1" d="M157.6159973,33.2243803c-.0679932.4009018-.1640015.7424011-.3009949,1.0245018-.1360016.2820969-.3139954.5047989-.5319977.6532974-.2190094.1632996-.4780121.2375031-.7779999.2375031-.178009,0-.3690033-.0297012-.5470123-.1039009-.1769867-.0741997-.3409882-.1781998-.4769897-.3265991-.1370087-.1485023-.2460022-.3415031-.3419952-.5791016-.0820007-.2374992-.1360016-.5345001-.1360016-.8759995v-2.8803005c0-.5641994.1360016-.9948006.4229889-1.2917004.2730103-.296999.628006-.4305992,1.0380096-.4305992.572998,0,1.0099945.2820988,1.2969971.8611984.3000031.5790005.4499969,1.3659.4499969,2.3903999,0,.4899025-.0410004.9353027-.0950012,1.3362007M159.4869995,30.3588808c-.1640015-.4601994-.3829956-.8759003-.6699982-1.2173996-.2859955-.3415012-.628006-.6088009-1.0099945-.8166008-.3820038-.1929989-.8059998-.296999-1.256012-.296999-.4919891,0-.901001.0890999-1.2429962.2375984-.3410034.1633015-.6009979.3860016-.7919922.6978016,0-.6236,0-1.1729012.0139923-1.6183014,0-.4454002.0140076-.8314991.0140076-1.1283989,0-.2970009,0-.5494003.0269928-.7424011v-.415699c0-.2227001-.0820007-.3415012-.2460022-.3415012h-2.5529938c-.1230011,0-.178009.0743008-.178009.2227001,0,.0594006,0,.1188011.0410004.1782017.0279999.0593987.0680084.0890999.1370087.0890999.2460022,0,.4639893.0444984.6419983.1187992.177002.0741997.272995.1930008.272995.3563004v9.1013012c0,.1632996-.095993.2820969-.272995.3563004-.178009.0742989-.3829956.1187973-.6419983.1187973-.1230011,0-.178009.0741997-.178009.222702,0,.0593987,0,.1187973.0410004.1632996.0279999.0445976.0680084.0742989.1370087.0742989.1089935,0,.3679962,0,.7919922-.0297012.4230042-.0149002.9690094-.0296974,1.6380005-.0296974.178009,0,.2730103-.2672997.2870026-.8166008.1909943.3117981.451004.5642014.7779999.7422981.3280029.1782036.7510071.2673035,1.2559967.2673035.4240112,0,.8200073-.1039009,1.2020111-.2969017.3819885-.1931.723999-.4603004,1.0109863-.8017998.2860107-.3414993.5180054-.7572021.6960144-1.2472.1769867-.4898987.272995-1.0243988.272995-1.6182995,0-.5345001-.0820007-1.0541-.2460022-1.5144005"/>
      <path class="st1" d="M163.473999,25.4296816c0,.1632996-.0139923.3711987-.0139923.6383991,0,.2672997,0,.6236-.0270081,1.0541992v7.6166c0,.1632996.0950012.2821007.2590027.3563004.1779938.0741997.3959961.1039009.6419983.1039009.0540009,0,.0950012.0297012.1360016.0742989.0279999.0445023.0410004.1039009.0410004.1632996,0,.1632996-.0540009.2374992-.177002.2374992-.095993,0-.3009949,0-.628006-.0296974-.3139954-.014801-.723999-.0297012-1.2159882-.0297012-.4910126,0-.8730011,0-1.1740112.0297012-.2999878,0-.5189972.0296974-.6139984.0296974-.0549927,0-.095993-.0147972-.1230011-.0741997-.0279999-.0444984-.0410004-.1038971-.0410004-.1632996,0-.1484985.0540009-.2226982.1640015-.2226982.2450104,0,.4640045-.0446014.6410065-.1188011.1779938-.0741997.2740021-.1930008.2740021-.3563004v-9.1012993c0-.1485004-.0960083-.2672997-.2740021-.3563995-.177002-.0741997-.3959961-.1188011-.6410065-.1188011-.0549927,0-.095993-.0296993-.1230011-.0889988-.0279999-.0594006-.0410004-.1188011-.0410004-.1781998,0-.1485004.0540009-.2227001.1640015-.2227001h2.553009c.1640015,0,.2460022.1187992.2460022.3414993,0,.0890999,0,.2227001-.0140076.3710995"/>
      <path class="st1" d="M167.8699951,24.8802813c.2050018.2227993.3140106.5049.3140106.8314991,0,.326601-.1090088.6086998-.3140106.8313999-.2039948.2227001-.4639893.3415012-.7639923.3415012-.3010101,0-.5599976-.1188011-.779007-.3415012-.2039948-.2227001-.3139954-.5047989-.3139954-.8313999,0-.3265991.1100006-.6086998.3139954-.8314991.2050018-.2227001.4779968-.3414001.779007-.3414001.3000031,0,.5599976.1187.7639923.3414001ZM168.1159973,29.007881c0,.1632996-.0139923.3710995-.0139923.6532001,0,.2820988,0,.6385002-.0270081,1.0690002,0,.4305992-.0139923.9798985-.0139923,1.6331997v2.3459015c0,.1632996.095993.2820969.2599945.3562965.177002.0742035.3959961.1039009.6419983.1039009.0540009,0,.0950012.0297012.1230011.0742989.0270081.0445023.0410004.1039009.0410004.1633034,0,.1484985-.0549927.2374992-.1640015.2374992-.095993,0-.3009949,0-.6279907-.0297012-.3140106-.014801-.7240143-.0295982-1.2160034-.0295982-.4909973,0-.8740082,0-1.173996.0295982-.3000031,0-.5190125.0297012-.6140137.0297012-.0549927,0-.095993-.014801-.1230011-.0741997-.0279999-.0445023-.0409851-.1039009-.0409851-.1632996,0-.1485023.0539856-.222702.1769867-.222702.2460022,0,.4650116-.0445976.6419983-.1188011.178009-.0741997.2730103-.192997.2730103-.3562965v-5.5529022c0-.1632996-.0950012-.2820988-.2730103-.3563004-.1769867-.0741997-.3959961-.1187992-.6419983-.1187992-.0540009,0-.0950012-.0296993-.1230011-.0741997-.0269928-.0445995-.0410004-.1039009-.0410004-.1632996,0-.1485004.0550079-.2376003.178009-.2376003.1089935,0,.3820038,0,.845993.0296993.451004.0149002,1.0250092.0296993,1.7070007.0296993.1640015,0,.2460022.1188011.2460022.3415012,0,.0890999,0,.2227001-.0139923.3712006"/>
      <path class="st1" d="M175.0529938,31.9030798c.3410034.1930008.628006.4157028.8730011.6828995.2460022.2672997.451004.5642014.6009979.8908997.1640015.3266029.2730103.638401.355011.9502029.0820007.3117981.2189941.5195999.423996.6383972.2039948.1039009.4360046.1633034.6959991.1633034.0550079,0,.0950012.0296974.1230011.0742989.0269928.0444984.0410004.0890007.0410004.1632996,0,.1483994-.0550079.2226982-.1779938.2226982-.0950012,0-.2730103,0-.5320129-.0296974-.2599945-.0149002-.6419983-.0297012-1.1339874-.0297012-.20401,0-.4090118,0-.6140137.0297012-.2049866,0-.368988.0296974-.4779968.0296974-.2050018,0-.3000031-.1335983-.3000031-.415699,0-.4899979-.0690002-.9353981-.1919861-1.3362999-.1220093-.415699-.2860107-.7571983-.477005-1.0541-.2050018-.2970009-.4369965-.5345001-.723999-.6978989-.2870026-.1632996-.5870056-.2524014-.9290009-.2820015v2.8803024c0,.3265991.2330017.4899979.723999.4899979.0549927,0,.095993.014801.1369934.0592995.0270081.0446014.0410004.1040001.0410004.1634026,0,.1483994-.0549927.207798-.1779938.207798-.0960083,0-.272995,0-.5319977-.0297012-.2600098-.0147972-.6289978-.0296974-1.1200104-.0296974-.4919891,0-.8739929,0-1.173996.0296974-.3139954,0-.5059967.0297012-.6149902.0297012-.0540009,0-.0950012-.014801-.1230011-.0741997-.0270081-.0446014-.0410004-.1039009-.0410004-.1632996,0-.1484985.0549927-.222702.1779938-.222702.2460022,0,.4640045-.0445976.6419983-.1187973.177002-.0741997.2590027-.1930008.2590027-.3563004v-9.1014004c0-.1483994-.0820007-.2672005-.2590027-.3563004-.1779938-.0741997-.3959961-.1187992-.6419983-.1187992-.0549927,0-.095993-.0297012-.1230011-.0890007-.0269928-.0594006-.0410004-.1187992-.0410004-.1781998,0-.1485004.0550079-.2227001.177002-.2227001h2.5540009c.1640015,0,.2460022.1187992.2460022.3414993v.3711014c0,.1633987-.0140076.3711987-.0279999.6385002,0,.2671986,0,.6236-.0130005,1.0541,0,.4305992-.0140076.9798985-.0140076,1.6331997v2.5833988c.3410034,0,.628006-.0890999.901001-.2374992.2730103-.1485004.4920044-.3267002.6829987-.5345001.177002-.2078991.3140106-.4305992.4230042-.6681995.0960083-.2375011.1370087-.4454002.1370087-.6235008,0-.1633987-.0550079-.3118-.1500092-.4158001-.095993-.103899-.2599945-.1632996-.4920044-.1632996-.1229858,0-.1779938-.0741997-.1779938-.2374992,0-.0594006.0140076-.1188011.0410004-.1634007.0279999-.0445004.0690002-.0741997.1230011-.0741997.1100006,0,.3139954,0,.6150055.0296993.2999878.014801.6959991.0296993,1.173996.0296993s.9149933,0,1.2700043-.0296993c.3549957-.0147991.5869904-.0296993.6829987-.0296993.1089935,0,.177002.0741997.177002.2376003,0,.0593987-.0140076.1187-.0410004.1632996-.0270081.0445004-.0680084.0741997-.1360016.0741997-.355011,0-.6150055.0594006-.779007.1632996-.1640015.1040001-.3139954.2821007-.4640045.5494003-.2999878.5345001-.6959991.9799004-1.173996,1.3362007-.4779968.3711987-.996994.6236-1.5839996.7572002.4499969.0593987.8460083.1929989,1.1880035.3711987"/>
      <path class="st1" d="M185.4299927,37.0995825c-.2189941.415699-.5049896.7571983-.8739929,1.039299s-.7919922.4898987-1.2700043.638401c-.4909973.1484985-.996994.2226982-1.5289917.2226982-.3830109,0-.7510071-.0297012-1.1060028-.1039009-.3419952-.0742989-.6560059-.1632996-.9150085-.2970009-.2589874-.1335983-.4639893-.2968979-.6279907-.4898987-.1500092-.207901-.2319946-.4454002-.2319946-.7126999,0-.3563004.094986-.6086998.2859955-.7719994.1920013-.1633987.3959961-.2375984.6149902-.2375984.2180023,0,.4230042.0741997.6010132.2078972.1769867.1483994.272995.3711014.272995.6681023,0,.1335983-.0279999.2672005-.0680084.3859978-.0549927.1188011-.1229858.222702-.2329865.3118019.0820007.1632996.2599945.2821007.5189972.400898.2599945.1039009.54599.1632996.8600006.1632996.2870026,0,.5599976-.0444984.8329926-.1335983.2600098-.0890999.4920044-.222702.7100067-.3861008.2050018-.1781006.3690033-.3859978.4920044-.6531982.1229858-.2672997.1779938-.5791016.1779938-.9354019v-1.9747009c-.2460022.3712006-.5879974.6830025-1.0110016.9502029-.4230042.2672997-.9559937.400898-1.5700073.400898-.7509918,0-1.3379974-.1930008-1.7619934-.5641975-.4089966-.3712006-.6139984-.9799004-.6139984-1.8262024v-4.2313995c0-.1632996-.095993-.2821007-.272995-.3563004-.178009-.0742989-.3960114-.1187992-.6419983-.1187992-.0550079,0-.0950012-.0149002-.1230011-.0743008-.0270081-.0445004-.0410004-.103899-.0410004-.1632996,0-.1485004.0549927-.2374992.1779938-.2374992.0950012,0,.3410034,0,.7510071.0296993.4089966.0147991,1.0099945.0296993,1.8019867.0296993.1640015,0,.2460022.1187.2460022.3414001,0,.0890999,0,.207901-.0139923.3415012,0,.1336002-.0130005.3118-.0270081.5196991,0,.2077999,0,.4601994-.0269928.7719994,0,.3118-.0140076.6830006-.0140076,1.1136017v1.6924992c0,.5938988.0820007,1.039299.2460022,1.3511009.1640015.3117981.4909973.4603004.9690094.4603004.272995,0,.5189972-.0445023.7509918-.1336021s.4369965-.2375984.6150055-.4157982c.177002-.1930008.3139954-.4157028.4089966-.6828995.095993-.2673035.151001-.5791016.151001-.9354019v-3.5485001c0-.1632996-.0960083-.2820988-.2599945-.3563004-.177002-.0741997-.3960114-.1187992-.6420135-.1187992-.0540009,0-.094986-.0147991-.1229858-.0741997-.0270081-.0445995-.0410004-.1039009-.0410004-.1632996,0-.1485004.0549927-.2376003.1639862-.2376003h.3280029c.1640015,0,.3690033,0,.6139984.0149002.2330017,0,.4920044,0,.779007.0147991h.8329926c.1640015,0,.2450104.1188011.2450104.3414993v.3563004c0,.1485004-.0130005.3118-.0270081.5345001,0,.207901,0,.4750996-.0269928.7868996v5.3449993c0,.5493011-.1090088,1.0393028-.3280029,1.4550018"/>
    </g>
  </g>
</svg>